0
SECTION
2
HEADER
9
$ACADVER
1
AC1009
9
$INSUNITS
70
4
9
$EXTMIN
10
0.0
20
0.0
30
0.0
9
$EXTMAX
10
100.000
20
100.000
30
0.0
0
ENDSEC
0
SECTION
2
TABLES
0
TABLE
2
LTYPE
70
1
0
LTYPE
2
CONTINUOUS
70
0
3
Solid line
72
65
73
0
40
0.0
0
ENDTAB
0
TABLE
2
LAYER
70
9
0
LAYER
2
ETCH_SAMPLE
70
0
62
4
6
CONTINUOUS
0
LAYER
2
ETCH_FRAME
70
0
62
7
6
CONTINUOUS
0
LAYER
2
ETCH_SEPARATOR
70
0
62
1
6
CONTINUOUS
0
LAYER
2
ETCH_CONNECTOR
70
0
62
3
6
CONTINUOUS
0
LAYER
2
ETCH_BRIDGE
70
0
62
2
6
CONTINUOUS
0
LAYER
2
ETCH_TAB
70
0
62
2
6
CONTINUOUS
0
LAYER
2
ETCH_BOUNDARY
70
0
62
6
6
CONTINUOUS
0
LAYER
2
PLATE_OUTLINE
70
0
62
7
6
CONTINUOUS
0
LAYER
2
ETCH_REMOVE
70
0
62
30
6
CONTINUOUS
0
ENDTAB
0
ENDSEC
0
SECTION
2
BLOCKS
0
ENDSEC
0
SECTION
2
ENTITIES
0
LINE
8
PLATE_OUTLINE
10
0.0000
20
0.0000
30
0.0
11
100.0000
21
0.0000
31
0.0
0
LINE
8
PLATE_OUTLINE
10
0.0000
20
100.0000
30
0.0
11
100.0000
21
100.0000
31
0.0
0
LINE
8
PLATE_OUTLINE
10
0.0000
20
0.0000
30
0.0
11
0.0000
21
100.0000
31
0.0
0
LINE
8
PLATE_OUTLINE
10
100.0000
20
0.0000
30
0.0
11
100.0000
21
100.0000
31
0.0
0
LINE
8
ETCH_FRAME
10
13.0000
20
25.0000
30
0.0
11
77.0000
21
25.0000
31
0.0
0
LINE
8
ETCH_FRAME
10
13.0000
20
70.0000
30
0.0
11
77.0000
21
70.0000
31
0.0
0
LINE
8
ETCH_FRAME
10
13.0000
20
25.0000
30
0.0
11
13.0000
21
70.0000
31
0.0
0
LINE
8
ETCH_FRAME
10
77.0000
20
25.0000
30
0.0
11
77.0000
21
70.0000
31
0.0
0
LINE
8
ETCH_SAMPLE
10
15.0000
20
25.0000
30
0.0
11
35.0000
21
25.0000
31
0.0
0
LINE
8
ETCH_SAMPLE
10
56.0000
20
30.0000
30
0.0
11
74.0000
21
30.0000
31
0.0
0
LINE
8
ETCH_SAMPLE
10
56.0000
20
40.0000
30
0.0
11
74.0000
21
40.0000
31
0.0
0
LINE
8
ETCH_SAMPLE
10
15.0000
20
45.0000
30
0.0
11
35.0000
21
45.0000
31
0.0
0
LINE
8
ETCH_SAMPLE
10
15.0000
20
60.0000
30
0.0
11
35.0000
21
60.0000
31
0.0
0
LINE
8
ETCH_SAMPLE
10
56.0000
20
60.0000
30
0.0
11
74.0000
21
60.0000
31
0.0
0
LINE
8
ETCH_SAMPLE
10
15.0000
20
70.0000
30
0.0
11
35.0000
21
70.0000
31
0.0
0
LINE
8
ETCH_SAMPLE
10
56.0000
20
70.0000
30
0.0
11
74.0000
21
70.0000
31
0.0
0
LINE
8
ETCH_SAMPLE
10
15.0000
20
25.0000
30
0.0
11
15.0000
21
34.7500
31
0.0
0
LINE
8
ETCH_SAMPLE
10
15.0000
20
35.2500
30
0.0
11
15.0000
21
45.0000
31
0.0
0
LINE
8
ETCH_SAMPLE
10
15.0000
20
60.0000
30
0.0
11
15.0000
21
64.7500
31
0.0
0
LINE
8
ETCH_SAMPLE
10
15.0000
20
65.2500
30
0.0
11
15.0000
21
70.0000
31
0.0
0
LINE
8
ETCH_SAMPLE
10
35.0000
20
25.0000
30
0.0
11
35.0000
21
34.7500
31
0.0
0
LINE
8
ETCH_SAMPLE
10
35.0000
20
35.2500
30
0.0
11
35.0000
21
45.0000
31
0.0
0
LINE
8
ETCH_SAMPLE
10
35.0000
20
60.0000
30
0.0
11
35.0000
21
64.7500
31
0.0
0
LINE
8
ETCH_SAMPLE
10
35.0000
20
65.2500
30
0.0
11
35.0000
21
70.0000
31
0.0
0
LINE
8
ETCH_SAMPLE
10
55.0000
20
31.0000
30
0.0
11
55.0000
21
34.7500
31
0.0
0
LINE
8
ETCH_SAMPLE
10
55.0000
20
35.2500
30
0.0
11
55.0000
21
39.0000
31
0.0
0
LINE
8
ETCH_SAMPLE
10
55.0000
20
61.0000
30
0.0
11
55.0000
21
64.7500
31
0.0
0
LINE
8
ETCH_SAMPLE
10
55.0000
20
65.2500
30
0.0
11
55.0000
21
69.0000
31
0.0
0
LINE
8
ETCH_SAMPLE
10
75.0000
20
31.0000
30
0.0
11
75.0000
21
34.7500
31
0.0
0
LINE
8
ETCH_SAMPLE
10
75.0000
20
35.2500
30
0.0
11
75.0000
21
39.0000
31
0.0
0
LINE
8
ETCH_SAMPLE
10
75.0000
20
61.0000
30
0.0
11
75.0000
21
64.7500
31
0.0
0
LINE
8
ETCH_SAMPLE
10
75.0000
20
65.2500
30
0.0
11
75.0000
21
69.0000
31
0.0
0
LINE
8
ETCH_SAMPLE
10
55.0000
20
31.0000
30
0.0
11
56.0000
21
30.0000
31
0.0
0
LINE
8
ETCH_SAMPLE
10
74.0000
20
30.0000
30
0.0
11
75.0000
21
31.0000
31
0.0
0
LINE
8
ETCH_SAMPLE
10
74.0000
20
40.0000
30
0.0
11
75.0000
21
39.0000
31
0.0
0
LINE
8
ETCH_SAMPLE
10
55.0000
20
39.0000
30
0.0
11
56.0000
21
40.0000
31
0.0
0
LINE
8
ETCH_BRIDGE
10
13.0000
20
34.7500
30
0.0
11
15.0000
21
34.7500
31
0.0
0
LINE
8
ETCH_BRIDGE
10
35.0000
20
34.7500
30
0.0
11
37.0000
21
34.7500
31
0.0
0
LINE
8
ETCH_BRIDGE
10
53.0000
20
34.7500
30
0.0
11
55.0000
21
34.7500
31
0.0
0
LINE
8
ETCH_BRIDGE
10
75.0000
20
34.7500
30
0.0
11
77.0000
21
34.7500
31
0.0
0
LINE
8
ETCH_BRIDGE
10
13.0000
20
35.2500
30
0.0
11
15.0000
21
35.2500
31
0.0
0
LINE
8
ETCH_BRIDGE
10
35.0000
20
35.2500
30
0.0
11
37.0000
21
35.2500
31
0.0
0
LINE
8
ETCH_BRIDGE
10
53.0000
20
35.2500
30
0.0
11
55.0000
21
35.2500
31
0.0
0
LINE
8
ETCH_BRIDGE
10
75.0000
20
35.2500
30
0.0
11
77.0000
21
35.2500
31
0.0
0
LINE
8
ETCH_BRIDGE
10
13.0000
20
64.7500
30
0.0
11
15.0000
21
64.7500
31
0.0
0
LINE
8
ETCH_BRIDGE
10
35.0000
20
64.7500
30
0.0
11
37.0000
21
64.7500
31
0.0
0
LINE
8
ETCH_BRIDGE
10
53.0000
20
64.7500
30
0.0
11
55.0000
21
64.7500
31
0.0
0
LINE
8
ETCH_BRIDGE
10
75.0000
20
64.7500
30
0.0
11
77.0000
21
64.7500
31
0.0
0
LINE
8
ETCH_BRIDGE
10
13.0000
20
65.2500
30
0.0
11
15.0000
21
65.2500
31
0.0
0
LINE
8
ETCH_BRIDGE
10
35.0000
20
65.2500
30
0.0
11
37.0000
21
65.2500
31
0.0
0
LINE
8
ETCH_BRIDGE
10
53.0000
20
65.2500
30
0.0
11
55.0000
21
65.2500
31
0.0
0
LINE
8
ETCH_BRIDGE
10
75.0000
20
65.2500
30
0.0
11
77.0000
21
65.2500
31
0.0
0
POLYLINE
8
ETCH_REMOVE
66
1
70
1
10
0.0
20
0.0
30
0.0
0
VERTEX
8
ETCH_REMOVE
10
13.0000
20
60.0000
30
0.0
0
VERTEX
8
ETCH_REMOVE
10
15.0000
20
60.0000
30
0.0
0
VERTEX
8
ETCH_REMOVE
10
15.0000
20
64.7500
30
0.0
0
VERTEX
8
ETCH_REMOVE
10
13.0000
20
64.7500
30
0.0
0
SEQEND
8
ETCH_REMOVE
0
POLYLINE
8
ETCH_REMOVE
66
1
70
1
10
0.0
20
0.0
30
0.0
0
VERTEX
8
ETCH_REMOVE
10
13.0000
20
65.2500
30
0.0
0
VERTEX
8
ETCH_REMOVE
10
15.0000
20
65.2500
30
0.0
0
VERTEX
8
ETCH_REMOVE
10
15.0000
20
70.0000
30
0.0
0
VERTEX
8
ETCH_REMOVE
10
13.0000
20
70.0000
30
0.0
0
SEQEND
8
ETCH_REMOVE
0
POLYLINE
8
ETCH_REMOVE
66
1
70
1
10
0.0
20
0.0
30
0.0
0
VERTEX
8
ETCH_REMOVE
10
35.0000
20
60.0000
30
0.0
0
VERTEX
8
ETCH_REMOVE
10
37.0000
20
60.0000
30
0.0
0
VERTEX
8
ETCH_REMOVE
10
37.0000
20
64.7500
30
0.0
0
VERTEX
8
ETCH_REMOVE
10
35.0000
20
64.7500
30
0.0
0
SEQEND
8
ETCH_REMOVE
0
POLYLINE
8
ETCH_REMOVE
66
1
70
1
10
0.0
20
0.0
30
0.0
0
VERTEX
8
ETCH_REMOVE
10
35.0000
20
65.2500
30
0.0
0
VERTEX
8
ETCH_REMOVE
10
37.0000
20
65.2500
30
0.0
0
VERTEX
8
ETCH_REMOVE
10
37.0000
20
70.0000
30
0.0
0
VERTEX
8
ETCH_REMOVE
10
35.0000
20
70.0000
30
0.0
0
SEQEND
8
ETCH_REMOVE
0
POLYLINE
8
ETCH_REMOVE
66
1
70
1
10
0.0
20
0.0
30
0.0
0
VERTEX
8
ETCH_REMOVE
10
53.0000
20
60.0000
30
0.0
0
VERTEX
8
ETCH_REMOVE
10
55.0000
20
60.0000
30
0.0
0
VERTEX
8
ETCH_REMOVE
10
55.0000
20
64.7500
30
0.0
0
VERTEX
8
ETCH_REMOVE
10
53.0000
20
64.7500
30
0.0
0
SEQEND
8
ETCH_REMOVE
0
POLYLINE
8
ETCH_REMOVE
66
1
70
1
10
0.0
20
0.0
30
0.0
0
VERTEX
8
ETCH_REMOVE
10
53.0000
20
65.2500
30
0.0
0
VERTEX
8
ETCH_REMOVE
10
55.0000
20
65.2500
30
0.0
0
VERTEX
8
ETCH_REMOVE
10
55.0000
20
70.0000
30
0.0
0
VERTEX
8
ETCH_REMOVE
10
53.0000
20
70.0000
30
0.0
0
SEQEND
8
ETCH_REMOVE
0
POLYLINE
8
ETCH_REMOVE
66
1
70
1
10
0.0
20
0.0
30
0.0
0
VERTEX
8
ETCH_REMOVE
10
75.0000
20
60.0000
30
0.0
0
VERTEX
8
ETCH_REMOVE
10
77.0000
20
60.0000
30
0.0
0
VERTEX
8
ETCH_REMOVE
10
77.0000
20
64.7500
30
0.0
0
VERTEX
8
ETCH_REMOVE
10
75.0000
20
64.7500
30
0.0
0
SEQEND
8
ETCH_REMOVE
0
POLYLINE
8
ETCH_REMOVE
66
1
70
1
10
0.0
20
0.0
30
0.0
0
VERTEX
8
ETCH_REMOVE
10
75.0000
20
65.2500
30
0.0
0
VERTEX
8
ETCH_REMOVE
10
77.0000
20
65.2500
30
0.0
0
VERTEX
8
ETCH_REMOVE
10
77.0000
20
70.0000
30
0.0
0
VERTEX
8
ETCH_REMOVE
10
75.0000
20
70.0000
30
0.0
0
SEQEND
8
ETCH_REMOVE
0
POLYLINE
8
ETCH_REMOVE
66
1
70
1
10
0.0
20
0.0
30
0.0
0
VERTEX
8
ETCH_REMOVE
10
53.0000
20
30.0000
30
0.0
0
VERTEX
8
ETCH_REMOVE
10
55.0000
20
30.0000
30
0.0
0
VERTEX
8
ETCH_REMOVE
10
55.0000
20
34.7500
30
0.0
0
VERTEX
8
ETCH_REMOVE
10
53.0000
20
34.7500
30
0.0
0
SEQEND
8
ETCH_REMOVE
0
POLYLINE
8
ETCH_REMOVE
66
1
70
1
10
0.0
20
0.0
30
0.0
0
VERTEX
8
ETCH_REMOVE
10
53.0000
20
35.2500
30
0.0
0
VERTEX
8
ETCH_REMOVE
10
55.0000
20
35.2500
30
0.0
0
VERTEX
8
ETCH_REMOVE
10
55.0000
20
40.0000
30
0.0
0
VERTEX
8
ETCH_REMOVE
10
53.0000
20
40.0000
30
0.0
0
SEQEND
8
ETCH_REMOVE
0
POLYLINE
8
ETCH_REMOVE
66
1
70
1
10
0.0
20
0.0
30
0.0
0
VERTEX
8
ETCH_REMOVE
10
75.0000
20
30.0000
30
0.0
0
VERTEX
8
ETCH_REMOVE
10
77.0000
20
30.0000
30
0.0
0
VERTEX
8
ETCH_REMOVE
10
77.0000
20
34.7500
30
0.0
0
VERTEX
8
ETCH_REMOVE
10
75.0000
20
34.7500
30
0.0
0
SEQEND
8
ETCH_REMOVE
0
POLYLINE
8
ETCH_REMOVE
66
1
70
1
10
0.0
20
0.0
30
0.0
0
VERTEX
8
ETCH_REMOVE
10
75.0000
20
35.2500
30
0.0
0
VERTEX
8
ETCH_REMOVE
10
77.0000
20
35.2500
30
0.0
0
VERTEX
8
ETCH_REMOVE
10
77.0000
20
40.0000
30
0.0
0
VERTEX
8
ETCH_REMOVE
10
75.0000
20
40.0000
30
0.0
0
SEQEND
8
ETCH_REMOVE
0
POLYLINE
8
ETCH_REMOVE
66
1
70
1
10
0.0
20
0.0
30
0.0
0
VERTEX
8
ETCH_REMOVE
10
13.0000
20
25.0000
30
0.0
0
VERTEX
8
ETCH_REMOVE
10
15.0000
20
25.0000
30
0.0
0
VERTEX
8
ETCH_REMOVE
10
15.0000
20
34.7500
30
0.0
0
VERTEX
8
ETCH_REMOVE
10
13.0000
20
34.7500
30
0.0
0
SEQEND
8
ETCH_REMOVE
0
POLYLINE
8
ETCH_REMOVE
66
1
70
1
10
0.0
20
0.0
30
0.0
0
VERTEX
8
ETCH_REMOVE
10
13.0000
20
35.2500
30
0.0
0
VERTEX
8
ETCH_REMOVE
10
15.0000
20
35.2500
30
0.0
0
VERTEX
8
ETCH_REMOVE
10
15.0000
20
45.0000
30
0.0
0
VERTEX
8
ETCH_REMOVE
10
13.0000
20
45.0000
30
0.0
0
SEQEND
8
ETCH_REMOVE
0
POLYLINE
8
ETCH_REMOVE
66
1
70
1
10
0.0
20
0.0
30
0.0
0
VERTEX
8
ETCH_REMOVE
10
35.0000
20
25.0000
30
0.0
0
VERTEX
8
ETCH_REMOVE
10
37.0000
20
25.0000
30
0.0
0
VERTEX
8
ETCH_REMOVE
10
37.0000
20
34.7500
30
0.0
0
VERTEX
8
ETCH_REMOVE
10
35.0000
20
34.7500
30
0.0
0
SEQEND
8
ETCH_REMOVE
0
POLYLINE
8
ETCH_REMOVE
66
1
70
1
10
0.0
20
0.0
30
0.0
0
VERTEX
8
ETCH_REMOVE
10
35.0000
20
35.2500
30
0.0
0
VERTEX
8
ETCH_REMOVE
10
37.0000
20
35.2500
30
0.0
0
VERTEX
8
ETCH_REMOVE
10
37.0000
20
45.0000
30
0.0
0
VERTEX
8
ETCH_REMOVE
10
35.0000
20
45.0000
30
0.0
0
SEQEND
8
ETCH_REMOVE
0
POLYLINE
8
ETCH_REMOVE
66
1
70
1
10
0.0
20
0.0
30
0.0
0
VERTEX
8
ETCH_REMOVE
10
55.0000
20
40.0000
30
0.0
0
VERTEX
8
ETCH_REMOVE
10
75.0000
20
40.0000
30
0.0
0
VERTEX
8
ETCH_REMOVE
10
75.0000
20
60.0000
30
0.0
0
VERTEX
8
ETCH_REMOVE
10
55.0000
20
60.0000
30
0.0
0
SEQEND
8
ETCH_REMOVE
0
ARC
8
ETCH_SAMPLE
10
56.0000
20
61.0000
30
0.0
40
1.0000
50
180.000
51
270.000
0
ARC
8
ETCH_SAMPLE
10
74.0000
20
61.0000
30
0.0
40
1.0000
50
270.000
51
360.000
0
ARC
8
ETCH_SAMPLE
10
74.0000
20
69.0000
30
0.0
40
1.0000
50
0.000
51
90.000
0
ARC
8
ETCH_SAMPLE
10
56.0000
20
69.0000
30
0.0
40
1.0000
50
90.000
51
180.000
0
CIRCLE
8
PLATE_OUTLINE
10
3.5000
20
3.5000
30
0.0
40
1.5000
0
CIRCLE
8
PLATE_OUTLINE
10
96.5000
20
3.5000
30
0.0
40
1.5000
0
CIRCLE
8
PLATE_OUTLINE
10
3.5000
20
96.5000
30
0.0
40
1.5000
0
CIRCLE
8
PLATE_OUTLINE
10
96.5000
20
96.5000
30
0.0
40
1.5000
0
ENDSEC
0
EOF
