0
SECTION
2
HEADER
9
$ACADVER
1
AC1009
9
$INSUNITS
70
4
9
$EXTMIN
10
0.0
20
0.0
30
0.0
9
$EXTMAX
10
100.000
20
100.000
30
0.0
0
ENDSEC
0
SECTION
2
TABLES
0
TABLE
2
LTYPE
70
1
0
LTYPE
2
CONTINUOUS
70
0
3
Solid line
72
65
73
0
40
0.0
0
ENDTAB
0
TABLE
2
LAYER
70
14
0
LAYER
2
ETCH_SAMPLE
70
0
62
4
6
CONTINUOUS
0
LAYER
2
ETCH_FRAME
70
0
62
7
6
CONTINUOUS
0
LAYER
2
ETCH_SEPARATOR
70
0
62
1
6
CONTINUOUS
0
LAYER
2
ETCH_CONNECTOR
70
0
62
3
6
CONTINUOUS
0
LAYER
2
ETCH_BRIDGE
70
0
62
2
6
CONTINUOUS
0
LAYER
2
ETCH_TAB
70
0
62
2
6
CONTINUOUS
0
LAYER
2
ETCH_BOUNDARY
70
0
62
6
6
CONTINUOUS
0
LAYER
2
PLATE_OUTLINE
70
0
62
7
6
CONTINUOUS
0
LAYER
2
ETCH_REMOVE
70
0
62
30
6
CONTINUOUS
0
LAYER
2
GUIDE_ORIENTATION
70
0
62
5
6
CONTINUOUS
0
LAYER
2
GUIDE_DIMENSION
70
0
62
5
6
CONTINUOUS
0
LAYER
2
GUIDE_TEXT
70
0
62
8
6
CONTINUOUS
0
LAYER
2
GUIDE_GRID
70
0
62
9
6
CONTINUOUS
0
LAYER
2
GUIDE_BOUNDARY
70
0
62
6
6
CONTINUOUS
0
ENDTAB
0
ENDSEC
0
SECTION
2
BLOCKS
0
ENDSEC
0
SECTION
2
ENTITIES
0
LINE
8
PLATE_OUTLINE
10
0.0000
20
0.0000
30
0.0
11
100.0000
21
0.0000
31
0.0
0
LINE
8
PLATE_OUTLINE
10
0.0000
20
100.0000
30
0.0
11
100.0000
21
100.0000
31
0.0
0
LINE
8
PLATE_OUTLINE
10
0.0000
20
0.0000
30
0.0
11
0.0000
21
100.0000
31
0.0
0
LINE
8
PLATE_OUTLINE
10
100.0000
20
0.0000
30
0.0
11
100.0000
21
100.0000
31
0.0
0
LINE
8
ETCH_FRAME
10
13.0000
20
25.0000
30
0.0
11
77.0000
21
25.0000
31
0.0
0
LINE
8
ETCH_FRAME
10
13.0000
20
70.0000
30
0.0
11
77.0000
21
70.0000
31
0.0
0
LINE
8
ETCH_FRAME
10
13.0000
20
25.0000
30
0.0
11
13.0000
21
70.0000
31
0.0
0
LINE
8
ETCH_FRAME
10
77.0000
20
25.0000
30
0.0
11
77.0000
21
70.0000
31
0.0
0
LINE
8
ETCH_SAMPLE
10
15.0000
20
25.0000
30
0.0
11
35.0000
21
25.0000
31
0.0
0
LINE
8
ETCH_SAMPLE
10
56.0000
20
30.0000
30
0.0
11
74.0000
21
30.0000
31
0.0
0
LINE
8
ETCH_SAMPLE
10
56.0000
20
40.0000
30
0.0
11
74.0000
21
40.0000
31
0.0
0
LINE
8
ETCH_SAMPLE
10
15.0000
20
45.0000
30
0.0
11
35.0000
21
45.0000
31
0.0
0
LINE
8
ETCH_SAMPLE
10
15.0000
20
60.0000
30
0.0
11
35.0000
21
60.0000
31
0.0
0
LINE
8
ETCH_SAMPLE
10
56.0000
20
60.0000
30
0.0
11
74.0000
21
60.0000
31
0.0
0
LINE
8
ETCH_SAMPLE
10
15.0000
20
70.0000
30
0.0
11
35.0000
21
70.0000
31
0.0
0
LINE
8
ETCH_SAMPLE
10
56.0000
20
70.0000
30
0.0
11
74.0000
21
70.0000
31
0.0
0
LINE
8
ETCH_SAMPLE
10
15.0000
20
25.0000
30
0.0
11
15.0000
21
34.7500
31
0.0
0
LINE
8
ETCH_SAMPLE
10
15.0000
20
35.2500
30
0.0
11
15.0000
21
45.0000
31
0.0
0
LINE
8
ETCH_SAMPLE
10
15.0000
20
60.0000
30
0.0
11
15.0000
21
64.7500
31
0.0
0
LINE
8
ETCH_SAMPLE
10
15.0000
20
65.2500
30
0.0
11
15.0000
21
70.0000
31
0.0
0
LINE
8
ETCH_SAMPLE
10
35.0000
20
25.0000
30
0.0
11
35.0000
21
34.7500
31
0.0
0
LINE
8
ETCH_SAMPLE
10
35.0000
20
35.2500
30
0.0
11
35.0000
21
45.0000
31
0.0
0
LINE
8
ETCH_SAMPLE
10
35.0000
20
60.0000
30
0.0
11
35.0000
21
64.7500
31
0.0
0
LINE
8
ETCH_SAMPLE
10
35.0000
20
65.2500
30
0.0
11
35.0000
21
70.0000
31
0.0
0
LINE
8
ETCH_SAMPLE
10
55.0000
20
31.0000
30
0.0
11
55.0000
21
34.7500
31
0.0
0
LINE
8
ETCH_SAMPLE
10
55.0000
20
35.2500
30
0.0
11
55.0000
21
39.0000
31
0.0
0
LINE
8
ETCH_SAMPLE
10
55.0000
20
61.0000
30
0.0
11
55.0000
21
64.7500
31
0.0
0
LINE
8
ETCH_SAMPLE
10
55.0000
20
65.2500
30
0.0
11
55.0000
21
69.0000
31
0.0
0
LINE
8
ETCH_SAMPLE
10
75.0000
20
31.0000
30
0.0
11
75.0000
21
34.7500
31
0.0
0
LINE
8
ETCH_SAMPLE
10
75.0000
20
35.2500
30
0.0
11
75.0000
21
39.0000
31
0.0
0
LINE
8
ETCH_SAMPLE
10
75.0000
20
61.0000
30
0.0
11
75.0000
21
64.7500
31
0.0
0
LINE
8
ETCH_SAMPLE
10
75.0000
20
65.2500
30
0.0
11
75.0000
21
69.0000
31
0.0
0
LINE
8
ETCH_SAMPLE
10
55.0000
20
31.0000
30
0.0
11
56.0000
21
30.0000
31
0.0
0
LINE
8
ETCH_SAMPLE
10
74.0000
20
30.0000
30
0.0
11
75.0000
21
31.0000
31
0.0
0
LINE
8
ETCH_SAMPLE
10
74.0000
20
40.0000
30
0.0
11
75.0000
21
39.0000
31
0.0
0
LINE
8
ETCH_SAMPLE
10
55.0000
20
39.0000
30
0.0
11
56.0000
21
40.0000
31
0.0
0
LINE
8
ETCH_BRIDGE
10
13.0000
20
34.7500
30
0.0
11
15.0000
21
34.7500
31
0.0
0
LINE
8
ETCH_BRIDGE
10
35.0000
20
34.7500
30
0.0
11
37.0000
21
34.7500
31
0.0
0
LINE
8
ETCH_BRIDGE
10
53.0000
20
34.7500
30
0.0
11
55.0000
21
34.7500
31
0.0
0
LINE
8
ETCH_BRIDGE
10
75.0000
20
34.7500
30
0.0
11
77.0000
21
34.7500
31
0.0
0
LINE
8
ETCH_BRIDGE
10
13.0000
20
35.2500
30
0.0
11
15.0000
21
35.2500
31
0.0
0
LINE
8
ETCH_BRIDGE
10
35.0000
20
35.2500
30
0.0
11
37.0000
21
35.2500
31
0.0
0
LINE
8
ETCH_BRIDGE
10
53.0000
20
35.2500
30
0.0
11
55.0000
21
35.2500
31
0.0
0
LINE
8
ETCH_BRIDGE
10
75.0000
20
35.2500
30
0.0
11
77.0000
21
35.2500
31
0.0
0
LINE
8
ETCH_BRIDGE
10
13.0000
20
64.7500
30
0.0
11
15.0000
21
64.7500
31
0.0
0
LINE
8
ETCH_BRIDGE
10
35.0000
20
64.7500
30
0.0
11
37.0000
21
64.7500
31
0.0
0
LINE
8
ETCH_BRIDGE
10
53.0000
20
64.7500
30
0.0
11
55.0000
21
64.7500
31
0.0
0
LINE
8
ETCH_BRIDGE
10
75.0000
20
64.7500
30
0.0
11
77.0000
21
64.7500
31
0.0
0
LINE
8
ETCH_BRIDGE
10
13.0000
20
65.2500
30
0.0
11
15.0000
21
65.2500
31
0.0
0
LINE
8
ETCH_BRIDGE
10
35.0000
20
65.2500
30
0.0
11
37.0000
21
65.2500
31
0.0
0
LINE
8
ETCH_BRIDGE
10
53.0000
20
65.2500
30
0.0
11
55.0000
21
65.2500
31
0.0
0
LINE
8
ETCH_BRIDGE
10
75.0000
20
65.2500
30
0.0
11
77.0000
21
65.2500
31
0.0
0
LINE
8
GUIDE_ORIENTATION
10
25.0000
20
30.0000
30
0.0
11
25.0000
21
40.0000
31
0.0
0
LINE
8
GUIDE_ORIENTATION
10
25.0000
20
62.5000
30
0.0
11
25.0000
21
67.5000
31
0.0
0
LINE
8
GUIDE_ORIENTATION
10
65.0000
20
32.5000
30
0.0
11
65.0000
21
37.5000
31
0.0
0
LINE
8
GUIDE_ORIENTATION
10
65.0000
20
62.5000
30
0.0
11
65.0000
21
67.5000
31
0.0
0
LINE
8
GUIDE_ORIENTATION
10
24.0000
20
66.2500
30
0.0
11
25.0000
21
67.5000
31
0.0
0
LINE
8
GUIDE_ORIENTATION
10
25.0000
20
67.5000
30
0.0
11
26.0000
21
66.2500
31
0.0
0
LINE
8
GUIDE_ORIENTATION
10
64.0000
20
66.2500
30
0.0
11
65.0000
21
67.5000
31
0.0
0
LINE
8
GUIDE_ORIENTATION
10
65.0000
20
67.5000
30
0.0
11
66.0000
21
66.2500
31
0.0
0
LINE
8
GUIDE_ORIENTATION
10
64.0000
20
36.2500
30
0.0
11
65.0000
21
37.5000
31
0.0
0
LINE
8
GUIDE_ORIENTATION
10
65.0000
20
37.5000
30
0.0
11
66.0000
21
36.2500
31
0.0
0
LINE
8
GUIDE_ORIENTATION
10
23.0000
20
37.5000
30
0.0
11
25.0000
21
40.0000
31
0.0
0
LINE
8
GUIDE_ORIENTATION
10
25.0000
20
40.0000
30
0.0
11
27.0000
21
37.5000
31
0.0
0
LINE
8
GUIDE_DIMENSION
10
103.0000
20
0.0000
30
0.0
11
107.0000
21
0.0000
31
0.0
0
LINE
8
GUIDE_DIMENSION
10
103.0000
20
100.0000
30
0.0
11
107.0000
21
100.0000
31
0.0
0
LINE
8
GUIDE_DIMENSION
10
0.0000
20
105.0000
30
0.0
11
100.0000
21
105.0000
31
0.0
0
LINE
8
GUIDE_DIMENSION
10
0.0000
20
103.0000
30
0.0
11
0.0000
21
107.0000
31
0.0
0
LINE
8
GUIDE_DIMENSION
10
100.0000
20
103.0000
30
0.0
11
100.0000
21
107.0000
31
0.0
0
LINE
8
GUIDE_DIMENSION
10
105.0000
20
0.0000
30
0.0
11
105.0000
21
100.0000
31
0.0
0
POLYLINE
8
ETCH_REMOVE
66
1
70
1
10
0.0
20
0.0
30
0.0
0
VERTEX
8
ETCH_REMOVE
10
13.0000
20
60.0000
30
0.0
0
VERTEX
8
ETCH_REMOVE
10
15.0000
20
60.0000
30
0.0
0
VERTEX
8
ETCH_REMOVE
10
15.0000
20
64.7500
30
0.0
0
VERTEX
8
ETCH_REMOVE
10
13.0000
20
64.7500
30
0.0
0
SEQEND
8
ETCH_REMOVE
0
POLYLINE
8
ETCH_REMOVE
66
1
70
1
10
0.0
20
0.0
30
0.0
0
VERTEX
8
ETCH_REMOVE
10
13.0000
20
65.2500
30
0.0
0
VERTEX
8
ETCH_REMOVE
10
15.0000
20
65.2500
30
0.0
0
VERTEX
8
ETCH_REMOVE
10
15.0000
20
70.0000
30
0.0
0
VERTEX
8
ETCH_REMOVE
10
13.0000
20
70.0000
30
0.0
0
SEQEND
8
ETCH_REMOVE
0
POLYLINE
8
ETCH_REMOVE
66
1
70
1
10
0.0
20
0.0
30
0.0
0
VERTEX
8
ETCH_REMOVE
10
35.0000
20
60.0000
30
0.0
0
VERTEX
8
ETCH_REMOVE
10
37.0000
20
60.0000
30
0.0
0
VERTEX
8
ETCH_REMOVE
10
37.0000
20
64.7500
30
0.0
0
VERTEX
8
ETCH_REMOVE
10
35.0000
20
64.7500
30
0.0
0
SEQEND
8
ETCH_REMOVE
0
POLYLINE
8
ETCH_REMOVE
66
1
70
1
10
0.0
20
0.0
30
0.0
0
VERTEX
8
ETCH_REMOVE
10
35.0000
20
65.2500
30
0.0
0
VERTEX
8
ETCH_REMOVE
10
37.0000
20
65.2500
30
0.0
0
VERTEX
8
ETCH_REMOVE
10
37.0000
20
70.0000
30
0.0
0
VERTEX
8
ETCH_REMOVE
10
35.0000
20
70.0000
30
0.0
0
SEQEND
8
ETCH_REMOVE
0
POLYLINE
8
ETCH_REMOVE
66
1
70
1
10
0.0
20
0.0
30
0.0
0
VERTEX
8
ETCH_REMOVE
10
53.0000
20
60.0000
30
0.0
0
VERTEX
8
ETCH_REMOVE
10
55.0000
20
60.0000
30
0.0
0
VERTEX
8
ETCH_REMOVE
10
55.0000
20
64.7500
30
0.0
0
VERTEX
8
ETCH_REMOVE
10
53.0000
20
64.7500
30
0.0
0
SEQEND
8
ETCH_REMOVE
0
POLYLINE
8
ETCH_REMOVE
66
1
70
1
10
0.0
20
0.0
30
0.0
0
VERTEX
8
ETCH_REMOVE
10
53.0000
20
65.2500
30
0.0
0
VERTEX
8
ETCH_REMOVE
10
55.0000
20
65.2500
30
0.0
0
VERTEX
8
ETCH_REMOVE
10
55.0000
20
70.0000
30
0.0
0
VERTEX
8
ETCH_REMOVE
10
53.0000
20
70.0000
30
0.0
0
SEQEND
8
ETCH_REMOVE
0
POLYLINE
8
ETCH_REMOVE
66
1
70
1
10
0.0
20
0.0
30
0.0
0
VERTEX
8
ETCH_REMOVE
10
75.0000
20
60.0000
30
0.0
0
VERTEX
8
ETCH_REMOVE
10
77.0000
20
60.0000
30
0.0
0
VERTEX
8
ETCH_REMOVE
10
77.0000
20
64.7500
30
0.0
0
VERTEX
8
ETCH_REMOVE
10
75.0000
20
64.7500
30
0.0
0
SEQEND
8
ETCH_REMOVE
0
POLYLINE
8
ETCH_REMOVE
66
1
70
1
10
0.0
20
0.0
30
0.0
0
VERTEX
8
ETCH_REMOVE
10
75.0000
20
65.2500
30
0.0
0
VERTEX
8
ETCH_REMOVE
10
77.0000
20
65.2500
30
0.0
0
VERTEX
8
ETCH_REMOVE
10
77.0000
20
70.0000
30
0.0
0
VERTEX
8
ETCH_REMOVE
10
75.0000
20
70.0000
30
0.0
0
SEQEND
8
ETCH_REMOVE
0
POLYLINE
8
ETCH_REMOVE
66
1
70
1
10
0.0
20
0.0
30
0.0
0
VERTEX
8
ETCH_REMOVE
10
53.0000
20
30.0000
30
0.0
0
VERTEX
8
ETCH_REMOVE
10
55.0000
20
30.0000
30
0.0
0
VERTEX
8
ETCH_REMOVE
10
55.0000
20
34.7500
30
0.0
0
VERTEX
8
ETCH_REMOVE
10
53.0000
20
34.7500
30
0.0
0
SEQEND
8
ETCH_REMOVE
0
POLYLINE
8
ETCH_REMOVE
66
1
70
1
10
0.0
20
0.0
30
0.0
0
VERTEX
8
ETCH_REMOVE
10
53.0000
20
35.2500
30
0.0
0
VERTEX
8
ETCH_REMOVE
10
55.0000
20
35.2500
30
0.0
0
VERTEX
8
ETCH_REMOVE
10
55.0000
20
40.0000
30
0.0
0
VERTEX
8
ETCH_REMOVE
10
53.0000
20
40.0000
30
0.0
0
SEQEND
8
ETCH_REMOVE
0
POLYLINE
8
ETCH_REMOVE
66
1
70
1
10
0.0
20
0.0
30
0.0
0
VERTEX
8
ETCH_REMOVE
10
75.0000
20
30.0000
30
0.0
0
VERTEX
8
ETCH_REMOVE
10
77.0000
20
30.0000
30
0.0
0
VERTEX
8
ETCH_REMOVE
10
77.0000
20
34.7500
30
0.0
0
VERTEX
8
ETCH_REMOVE
10
75.0000
20
34.7500
30
0.0
0
SEQEND
8
ETCH_REMOVE
0
POLYLINE
8
ETCH_REMOVE
66
1
70
1
10
0.0
20
0.0
30
0.0
0
VERTEX
8
ETCH_REMOVE
10
75.0000
20
35.2500
30
0.0
0
VERTEX
8
ETCH_REMOVE
10
77.0000
20
35.2500
30
0.0
0
VERTEX
8
ETCH_REMOVE
10
77.0000
20
40.0000
30
0.0
0
VERTEX
8
ETCH_REMOVE
10
75.0000
20
40.0000
30
0.0
0
SEQEND
8
ETCH_REMOVE
0
POLYLINE
8
ETCH_REMOVE
66
1
70
1
10
0.0
20
0.0
30
0.0
0
VERTEX
8
ETCH_REMOVE
10
13.0000
20
25.0000
30
0.0
0
VERTEX
8
ETCH_REMOVE
10
15.0000
20
25.0000
30
0.0
0
VERTEX
8
ETCH_REMOVE
10
15.0000
20
34.7500
30
0.0
0
VERTEX
8
ETCH_REMOVE
10
13.0000
20
34.7500
30
0.0
0
SEQEND
8
ETCH_REMOVE
0
POLYLINE
8
ETCH_REMOVE
66
1
70
1
10
0.0
20
0.0
30
0.0
0
VERTEX
8
ETCH_REMOVE
10
13.0000
20
35.2500
30
0.0
0
VERTEX
8
ETCH_REMOVE
10
15.0000
20
35.2500
30
0.0
0
VERTEX
8
ETCH_REMOVE
10
15.0000
20
45.0000
30
0.0
0
VERTEX
8
ETCH_REMOVE
10
13.0000
20
45.0000
30
0.0
0
SEQEND
8
ETCH_REMOVE
0
POLYLINE
8
ETCH_REMOVE
66
1
70
1
10
0.0
20
0.0
30
0.0
0
VERTEX
8
ETCH_REMOVE
10
35.0000
20
25.0000
30
0.0
0
VERTEX
8
ETCH_REMOVE
10
37.0000
20
25.0000
30
0.0
0
VERTEX
8
ETCH_REMOVE
10
37.0000
20
34.7500
30
0.0
0
VERTEX
8
ETCH_REMOVE
10
35.0000
20
34.7500
30
0.0
0
SEQEND
8
ETCH_REMOVE
0
POLYLINE
8
ETCH_REMOVE
66
1
70
1
10
0.0
20
0.0
30
0.0
0
VERTEX
8
ETCH_REMOVE
10
35.0000
20
35.2500
30
0.0
0
VERTEX
8
ETCH_REMOVE
10
37.0000
20
35.2500
30
0.0
0
VERTEX
8
ETCH_REMOVE
10
37.0000
20
45.0000
30
0.0
0
VERTEX
8
ETCH_REMOVE
10
35.0000
20
45.0000
30
0.0
0
SEQEND
8
ETCH_REMOVE
0
POLYLINE
8
ETCH_REMOVE
66
1
70
1
10
0.0
20
0.0
30
0.0
0
VERTEX
8
ETCH_REMOVE
10
55.0000
20
40.0000
30
0.0
0
VERTEX
8
ETCH_REMOVE
10
75.0000
20
40.0000
30
0.0
0
VERTEX
8
ETCH_REMOVE
10
75.0000
20
60.0000
30
0.0
0
VERTEX
8
ETCH_REMOVE
10
55.0000
20
60.0000
30
0.0
0
SEQEND
8
ETCH_REMOVE
0
ARC
8
ETCH_SAMPLE
10
56.0000
20
61.0000
30
0.0
40
1.0000
50
180.000
51
270.000
0
ARC
8
ETCH_SAMPLE
10
74.0000
20
61.0000
30
0.0
40
1.0000
50
270.000
51
360.000
0
ARC
8
ETCH_SAMPLE
10
74.0000
20
69.0000
30
0.0
40
1.0000
50
0.000
51
90.000
0
ARC
8
ETCH_SAMPLE
10
56.0000
20
69.0000
30
0.0
40
1.0000
50
90.000
51
180.000
0
CIRCLE
8
PLATE_OUTLINE
10
3.5000
20
3.5000
30
0.0
40
1.5000
0
CIRCLE
8
PLATE_OUTLINE
10
96.5000
20
3.5000
30
0.0
40
1.5000
0
CIRCLE
8
PLATE_OUTLINE
10
3.5000
20
96.5000
30
0.0
40
1.5000
0
CIRCLE
8
PLATE_OUTLINE
10
96.5000
20
96.5000
30
0.0
40
1.5000
0
TEXT
8
GUIDE_DIMENSION
10
42.0000
20
106.0000
30
0.0
40
2.500
1
100 mm
0
TEXT
8
GUIDE_DIMENSION
10
106.0000
20
50.0000
30
0.0
40
2.500
1
100 mm
0
TEXT
8
GUIDE_TEXT
10
10.0000
20
2.0000
30
0.0
40
2.000
1
3M ETCHING DESIGN - PLATE: 100x100mm - TOTAL: 4EA
0
ENDSEC
0
EOF
